<?xml version="1.0" encoding="iso-8859-1"?>
<!-- Generator: Adobe Illustrator 19.0.0, SVG Export Plug-In . SVG Version: 6.00 Build 0)  -->
<svg version="1.1" id="Capa_1" xmlns="http://www.w3.org/2000/svg" xmlns:xlink="http://www.w3.org/1999/xlink" x="0px" y="0px"
	 viewBox="0 0 512 512" style="enable-background:new 0 0 512 512;" xml:space="preserve">
<path style="fill:#FFD791;" d="M495.841,426.519l-14.331-77.627c-0.595-3.224-3.094-5.76-6.309-6.404l-112.704-22.541
	c-2.627-0.525-5.343,0.298-7.238,2.192l-49.629,49.629c-83.92-36.532-128.96-81.617-168.915-169.07l49.553-49.552
	c1.895-1.894,2.717-4.611,2.192-7.238L165.919,33.206c-0.643-3.214-3.179-5.714-6.404-6.309L81.888,12.567
	c-1.07-0.197-2.17-0.175-3.23,0.066C59.62,16.959,42.249,26.554,28.421,40.381C4.51,64.292-4.572,99.542,2.158,142.32
	c11.795,74.981,48.45,179.247,115.962,247.028l0.463,0.475c0.122,0.122,0.245,0.241,0.369,0.36l0.119,0.114
	c67.768,67.501,172.034,104.156,247.015,115.951c9.167,1.442,17.982,2.158,26.42,2.158c30.939,0,56.732-9.634,75.52-28.422
	c13.828-13.827,23.423-31.199,27.75-50.237C496.015,428.688,496.038,427.589,495.841,426.519z"/>
<path style="fill:#FFC44F;" d="M136.715,202.699L78.658,12.633C59.62,16.959,42.249,26.554,28.421,40.381
	C4.51,64.292-4.572,99.542,2.158,142.32c11.795,74.981,48.45,179.247,115.962,247.028l0.463,0.475
	c0.122,0.122,0.245,0.241,0.369,0.36l0.119,0.114c67.768,67.501,172.034,104.156,247.015,115.951
	c9.167,1.442,17.982,2.158,26.42,2.158c30.939,0,56.732-9.634,75.52-28.422c13.828-13.827,23.423-31.199,27.75-50.237
	l-190.144-57.98C221.711,335.237,176.67,290.152,136.715,202.699z"/>
<path style="fill:#FFB357;" d="M408.732,491.356c-8.438,0-17.253-0.715-26.42-2.158c-74.981-11.796-179.247-48.451-247.015-115.951
	l-0.119-0.114c-0.123-0.119-0.247-0.237-0.369-0.36l-0.463-0.475C66.833,304.516,30.179,200.249,18.384,125.268
	c-5.805-36.901,0.166-68.193,17.262-91.445c-2.498,2.068-4.915,4.248-7.224,6.558C4.51,64.292-4.572,99.542,2.158,142.32
	c11.795,74.981,48.45,179.247,115.962,247.028l0.463,0.475c0.122,0.122,0.245,0.241,0.369,0.36l0.119,0.114
	c67.768,67.501,172.034,104.156,247.015,115.951c9.167,1.442,17.982,2.158,26.42,2.158c30.939,0,56.732-9.634,75.52-28.422
	c3.48-3.48,6.69-7.185,9.617-11.084C459.589,483.747,436.194,491.356,408.732,491.356z"/>
<path style="fill:#B0DB51;" d="M367.758,3.594c-79.535,0-144.242,53.922-144.242,120.201c0,35.814,18.535,68.94,51.116,91.831
	l-26.338,57.066c-1.368,2.964-0.763,6.56,1.501,8.912c2.491,2.589,6.523,3.198,9.667,1.451l75.812-42.118
	c10.606,2.03,21.518,3.059,32.484,3.059c79.535,0,144.242-53.922,144.242-120.201S447.294,3.594,367.758,3.594z"/>
<path style="fill:#9CC445;" d="M273.835,273.608c-2.263-2.352-2.868-5.948-1.5-8.912l26.338-57.066
	c-32.581-22.892-51.116-56.017-51.116-91.831c0-46.756,32.204-87.359,79.097-107.225C267.082,23.36,223.517,69.414,223.517,123.796
	c0,35.814,18.535,68.94,51.116,91.831l-26.338,57.066c-1.368,2.964-0.763,6.56,1.501,8.911c2.491,2.589,6.523,3.198,9.667,1.451
	l15.4-8.555C274.498,274.235,274.153,273.939,273.835,273.608z"/>
<g>
	<path style="fill:#F3F1F1;" d="M383.785,99.756h-32.054c-4.425,0-8.013,3.588-8.013,8.013v88.148c0,4.425,3.588,8.013,8.013,8.013
		h32.054c4.425,0,8.013-3.588,8.013-8.013v-88.148C391.799,103.343,388.212,99.756,383.785,99.756z"/>
	<path style="fill:#F3F1F1;" d="M367.758,43.662c-13.256,0-24.04,10.784-24.04,24.04s10.784,24.04,24.04,24.04
		s24.04-10.784,24.04-24.04S381.015,43.662,367.758,43.662z"/>
</g>
<g>
</g>
<g>
</g>
<g>
</g>
<g>
</g>
<g>
</g>
<g>
</g>
<g>
</g>
<g>
</g>
<g>
</g>
<g>
</g>
<g>
</g>
<g>
</g>
<g>
</g>
<g>
</g>
<g>
</g>
</svg>
